<svg width="60" height="60" viewBox="0 0 60 60" fill="none" xmlns="http://www.w3.org/2000/svg">
<g clip-path="url(#clip0_96_2)">
<path d="M52.6105 8.53789H40.4092V4.52474C40.4093 2.03039 38.3789 9.53674e-07 35.8844 9.53674e-07H24.1136C21.6191 9.53674e-07 19.5905 2.03039 19.5905 4.52474V8.53789H7.38854C4.89389 8.53789 2.86548 10.5683 2.86548 13.0628V18.9473C2.86548 19.9811 3.70286 20.8187 4.73685 20.8187H9.64901V55.4769C9.64901 57.9714 11.6776 60 14.1721 60H46.5277C49.0224 60 51.0526 57.9714 51.0526 55.4769V20.8187H55.2631C56.2956 20.8187 57.1345 19.9813 57.1345 18.9473V13.0628C57.1345 10.5683 55.105 8.53789 52.6105 8.53789ZM23.3332 4.52474C23.3332 4.09349 23.6841 3.74259 24.1136 3.74259H35.8844C36.3157 3.74259 36.6666 4.09349 36.6666 4.52474V8.53789H23.3332V4.52474Z" fill="#6E4E27"/>
</g>
<defs>
<clipPath id="clip0_96_2">
<rect width="60" height="60" fill="white"/>
</clipPath>
</defs>
</svg>
